<mxfile host="Electron" modified="2024-06-03T23:45:09.419Z" agent="Mozilla/5.0 (Windows NT 10.0; Win64; x64) AppleWebKit/537.36 (KHTML, like Gecko) draw.io/23.1.5 Chrome/120.0.6099.109 Electron/28.1.0 Safari/537.36" etag="QdlxAg1RYPpsaTG20s96" version="23.1.5" type="device">
  <diagram name="Страница — 1" id="S7gQ4gwkkMyvrDvGTigL">
    <mxGraphModel dx="1434" dy="844" grid="1" gridSize="10" guides="1" tooltips="1" connect="1" arrows="1" fold="1" page="1" pageScale="1" pageWidth="827" pageHeight="1169" math="0" shadow="0">
      <root>
        <mxCell id="0" />
        <mxCell id="1" parent="0" />
        <mxCell id="rrrjZB_k_pWsPoR_Nj8O-1" value="Logger" style="html=1;dropTarget=0;whiteSpace=wrap;" parent="1" vertex="1">
          <mxGeometry x="430" y="445" width="350" height="270" as="geometry" />
        </mxCell>
        <mxCell id="rrrjZB_k_pWsPoR_Nj8O-10" value="PostgresDatabase" style="html=1;dropTarget=0;whiteSpace=wrap;" parent="1" vertex="1">
          <mxGeometry x="515" y="815" width="180" height="90" as="geometry" />
        </mxCell>
        <mxCell id="rrrjZB_k_pWsPoR_Nj8O-11" value="" style="shape=module;jettyWidth=8;jettyHeight=4;" parent="rrrjZB_k_pWsPoR_Nj8O-10" vertex="1">
          <mxGeometry x="1" width="20" height="20" relative="1" as="geometry">
            <mxPoint x="-27" y="7" as="offset" />
          </mxGeometry>
        </mxCell>
        <mxCell id="rrrjZB_k_pWsPoR_Nj8O-12" value="" style="html=1;rounded=0;" parent="1" vertex="1">
          <mxGeometry x="590" y="795" width="30" height="30" as="geometry" />
        </mxCell>
        <mxCell id="rrrjZB_k_pWsPoR_Nj8O-13" value="" style="endArrow=none;html=1;rounded=0;align=center;verticalAlign=top;endFill=0;labelBackgroundColor=none;endSize=2;" parent="1" source="rrrjZB_k_pWsPoR_Nj8O-12" target="rrrjZB_k_pWsPoR_Nj8O-14" edge="1">
          <mxGeometry relative="1" as="geometry" />
        </mxCell>
        <mxCell id="rrrjZB_k_pWsPoR_Nj8O-14" value="" style="ellipse;html=1;fontSize=11;align=center;fillColor=none;points=[];aspect=fixed;resizable=0;verticalAlign=bottom;labelPosition=center;verticalLabelPosition=top;flipH=1;" parent="1" vertex="1">
          <mxGeometry x="601" y="775" width="8" height="8" as="geometry" />
        </mxCell>
        <mxCell id="rrrjZB_k_pWsPoR_Nj8O-15" value="" style="html=1;rounded=0;" parent="1" vertex="1">
          <mxGeometry x="590" y="695" width="30" height="30" as="geometry" />
        </mxCell>
        <mxCell id="rrrjZB_k_pWsPoR_Nj8O-16" value="" style="endArrow=none;html=1;rounded=0;align=center;verticalAlign=top;endFill=0;labelBackgroundColor=none;endSize=2;" parent="1" source="rrrjZB_k_pWsPoR_Nj8O-15" edge="1">
          <mxGeometry relative="1" as="geometry">
            <mxPoint x="605" y="765" as="targetPoint" />
          </mxGeometry>
        </mxCell>
        <mxCell id="rrrjZB_k_pWsPoR_Nj8O-17" value="" style="shape=requiredInterface;html=1;fontSize=11;align=center;fillColor=none;points=[];aspect=fixed;resizable=0;verticalAlign=bottom;labelPosition=center;verticalLabelPosition=top;flipH=1;rotation=90;" parent="1" vertex="1">
          <mxGeometry x="602.5" y="765" width="5" height="10" as="geometry" />
        </mxCell>
        <mxCell id="rrrjZB_k_pWsPoR_Nj8O-18" value="" style="html=1;rounded=0;" parent="1" vertex="1">
          <mxGeometry x="768" y="565" width="30" height="30" as="geometry" />
        </mxCell>
        <mxCell id="rrrjZB_k_pWsPoR_Nj8O-19" value="" style="endArrow=none;html=1;rounded=0;align=center;verticalAlign=top;endFill=0;labelBackgroundColor=none;endSize=2;" parent="1" source="rrrjZB_k_pWsPoR_Nj8O-18" target="rrrjZB_k_pWsPoR_Nj8O-20" edge="1">
          <mxGeometry relative="1" as="geometry" />
        </mxCell>
        <mxCell id="rrrjZB_k_pWsPoR_Nj8O-20" value="" style="shape=requiredInterface;html=1;fontSize=11;align=center;fillColor=none;points=[];aspect=fixed;resizable=0;verticalAlign=bottom;labelPosition=center;verticalLabelPosition=top;flipH=1;rotation=0;" parent="1" vertex="1">
          <mxGeometry x="838" y="576" width="5" height="10" as="geometry" />
        </mxCell>
        <mxCell id="rrrjZB_k_pWsPoR_Nj8O-21" value="TCP" style="text;html=1;strokeColor=none;fillColor=none;align=center;verticalAlign=middle;whiteSpace=wrap;rounded=0;" parent="1" vertex="1">
          <mxGeometry x="610" y="740" width="60" height="30" as="geometry" />
        </mxCell>
        <mxCell id="rrrjZB_k_pWsPoR_Nj8O-22" value="AMQP" style="text;html=1;strokeColor=none;fillColor=none;align=center;verticalAlign=middle;whiteSpace=wrap;rounded=0;" parent="1" vertex="1">
          <mxGeometry x="798" y="586" width="60" height="30" as="geometry" />
        </mxCell>
        <mxCell id="rrrjZB_k_pWsPoR_Nj8O-23" value="llibpqxx.so" style="html=1;dropTarget=0;whiteSpace=wrap;" parent="1" vertex="1">
          <mxGeometry x="60" y="410" width="180" height="90" as="geometry" />
        </mxCell>
        <mxCell id="rrrjZB_k_pWsPoR_Nj8O-24" value="" style="shape=module;jettyWidth=8;jettyHeight=4;" parent="rrrjZB_k_pWsPoR_Nj8O-23" vertex="1">
          <mxGeometry x="1" width="20" height="20" relative="1" as="geometry">
            <mxPoint x="-27" y="7" as="offset" />
          </mxGeometry>
        </mxCell>
        <mxCell id="rrrjZB_k_pWsPoR_Nj8O-27" value="llibamqpcpp.so" style="html=1;dropTarget=0;whiteSpace=wrap;" parent="1" vertex="1">
          <mxGeometry x="60" y="556" width="180" height="90" as="geometry" />
        </mxCell>
        <mxCell id="rrrjZB_k_pWsPoR_Nj8O-28" value="" style="shape=module;jettyWidth=8;jettyHeight=4;" parent="rrrjZB_k_pWsPoR_Nj8O-27" vertex="1">
          <mxGeometry x="1" width="20" height="20" relative="1" as="geometry">
            <mxPoint x="-27" y="7" as="offset" />
          </mxGeometry>
        </mxCell>
        <mxCell id="rrrjZB_k_pWsPoR_Nj8O-29" value="yamlcpp.so" style="html=1;dropTarget=0;whiteSpace=wrap;" parent="1" vertex="1">
          <mxGeometry x="60" y="725" width="180" height="90" as="geometry" />
        </mxCell>
        <mxCell id="rrrjZB_k_pWsPoR_Nj8O-30" value="" style="shape=module;jettyWidth=8;jettyHeight=4;" parent="rrrjZB_k_pWsPoR_Nj8O-29" vertex="1">
          <mxGeometry x="1" width="20" height="20" relative="1" as="geometry">
            <mxPoint x="-27" y="7" as="offset" />
          </mxGeometry>
        </mxCell>
        <mxCell id="rrrjZB_k_pWsPoR_Nj8O-31" value="" style="endArrow=none;html=1;rounded=0;" parent="1" edge="1">
          <mxGeometry width="50" height="50" relative="1" as="geometry">
            <mxPoint x="320" y="815" as="sourcePoint" />
            <mxPoint x="320" y="410" as="targetPoint" />
          </mxGeometry>
        </mxCell>
        <mxCell id="rrrjZB_k_pWsPoR_Nj8O-32" value="" style="endArrow=classic;html=1;rounded=0;entryX=0.989;entryY=0.589;entryDx=0;entryDy=0;entryPerimeter=0;" parent="1" target="rrrjZB_k_pWsPoR_Nj8O-23" edge="1">
          <mxGeometry width="50" height="50" relative="1" as="geometry">
            <mxPoint x="320" y="460" as="sourcePoint" />
            <mxPoint x="490" y="355" as="targetPoint" />
          </mxGeometry>
        </mxCell>
        <mxCell id="rrrjZB_k_pWsPoR_Nj8O-34" value="" style="endArrow=classic;html=1;rounded=0;entryX=0.994;entryY=0.589;entryDx=0;entryDy=0;entryPerimeter=0;" parent="1" target="rrrjZB_k_pWsPoR_Nj8O-27" edge="1">
          <mxGeometry width="50" height="50" relative="1" as="geometry">
            <mxPoint x="320" y="605" as="sourcePoint" />
            <mxPoint x="330" y="705" as="targetPoint" />
          </mxGeometry>
        </mxCell>
        <mxCell id="rrrjZB_k_pWsPoR_Nj8O-35" value="" style="endArrow=classic;html=1;rounded=0;entryX=1;entryY=0.5;entryDx=0;entryDy=0;" parent="1" target="rrrjZB_k_pWsPoR_Nj8O-29" edge="1">
          <mxGeometry width="50" height="50" relative="1" as="geometry">
            <mxPoint x="320" y="765" as="sourcePoint" />
            <mxPoint x="290" y="865" as="targetPoint" />
          </mxGeometry>
        </mxCell>
        <mxCell id="rrrjZB_k_pWsPoR_Nj8O-36" value="Use" style="endArrow=open;endSize=12;dashed=1;html=1;rounded=0;exitX=-0.006;exitY=0.396;exitDx=0;exitDy=0;exitPerimeter=0;" parent="1" source="rrrjZB_k_pWsPoR_Nj8O-1" edge="1">
          <mxGeometry width="160" relative="1" as="geometry">
            <mxPoint x="565" y="455" as="sourcePoint" />
            <mxPoint x="320" y="555" as="targetPoint" />
          </mxGeometry>
        </mxCell>
        <mxCell id="rrrjZB_k_pWsPoR_Nj8O-39" value="RabbitMQ" style="html=1;dropTarget=0;whiteSpace=wrap;" parent="1" vertex="1">
          <mxGeometry x="900" y="526" width="180" height="90" as="geometry" />
        </mxCell>
        <mxCell id="rrrjZB_k_pWsPoR_Nj8O-40" value="" style="shape=module;jettyWidth=8;jettyHeight=4;" parent="rrrjZB_k_pWsPoR_Nj8O-39" vertex="1">
          <mxGeometry x="1" width="20" height="20" relative="1" as="geometry">
            <mxPoint x="-27" y="7" as="offset" />
          </mxGeometry>
        </mxCell>
        <mxCell id="rrrjZB_k_pWsPoR_Nj8O-45" value="" style="html=1;rounded=0;" parent="1" vertex="1">
          <mxGeometry x="890" y="565" width="30" height="30" as="geometry" />
        </mxCell>
        <mxCell id="rrrjZB_k_pWsPoR_Nj8O-50" value="" style="endArrow=none;html=1;rounded=0;align=center;verticalAlign=top;endFill=0;labelBackgroundColor=none;endSize=2;exitX=-0.013;exitY=0.62;exitDx=0;exitDy=0;entryX=-0.225;entryY=0.6;entryDx=0;entryDy=0;entryPerimeter=0;exitPerimeter=0;" parent="1" source="rrrjZB_k_pWsPoR_Nj8O-45" target="rrrjZB_k_pWsPoR_Nj8O-51" edge="1">
          <mxGeometry relative="1" as="geometry">
            <mxPoint x="860" y="580" as="targetPoint" />
            <mxPoint x="890" y="580" as="sourcePoint" />
          </mxGeometry>
        </mxCell>
        <mxCell id="rrrjZB_k_pWsPoR_Nj8O-51" value="" style="ellipse;html=1;fontSize=11;align=center;fillColor=none;points=[];aspect=fixed;resizable=0;verticalAlign=bottom;labelPosition=center;verticalLabelPosition=top;flipH=1;" parent="1" vertex="1">
          <mxGeometry x="843" y="578" width="8" height="8" as="geometry" />
        </mxCell>
        <mxCell id="rrrjZB_k_pWsPoR_Nj8O-52" value="LogsProducer" style="html=1;dropTarget=0;whiteSpace=wrap;" parent="1" vertex="1">
          <mxGeometry x="535" y="480" width="140" height="70" as="geometry" />
        </mxCell>
        <mxCell id="rrrjZB_k_pWsPoR_Nj8O-53" value="" style="shape=module;jettyWidth=8;jettyHeight=4;" parent="rrrjZB_k_pWsPoR_Nj8O-52" vertex="1">
          <mxGeometry x="1" width="20" height="20" relative="1" as="geometry">
            <mxPoint x="-27" y="7" as="offset" />
          </mxGeometry>
        </mxCell>
        <mxCell id="rrrjZB_k_pWsPoR_Nj8O-54" value="LogsConsumer" style="html=1;dropTarget=0;whiteSpace=wrap;" parent="1" vertex="1">
          <mxGeometry x="535" y="610" width="140" height="70" as="geometry" />
        </mxCell>
        <mxCell id="rrrjZB_k_pWsPoR_Nj8O-55" value="" style="shape=module;jettyWidth=8;jettyHeight=4;" parent="rrrjZB_k_pWsPoR_Nj8O-54" vertex="1">
          <mxGeometry x="1" width="20" height="20" relative="1" as="geometry">
            <mxPoint x="-27" y="7" as="offset" />
          </mxGeometry>
        </mxCell>
      </root>
    </mxGraphModel>
  </diagram>
</mxfile>
